<svg width="24" height="22" viewBox="0 0 24 22" fill="none" xmlns="http://www.w3.org/2000/svg">
<g opacity="0.2">
<path d="M1.63782 18.2536V7.89141C1.63782 6.74683 2.56568 5.81896 3.71026 5.81896H4.22837C4.88069 5.81896 5.49494 5.51184 5.88633 4.98998L8.18674 1.92277C8.30416 1.76621 8.48844 1.67407 8.68413 1.67407H15.316C15.5117 1.67407 15.6959 1.76621 15.8133 1.92277L18.1138 4.98998C18.5051 5.51184 19.1194 5.81896 19.7717 5.81896H20.2898C21.4344 5.81896 22.3623 6.74683 22.3623 7.89141V18.2536C22.3623 19.3982 21.4344 20.3261 20.2898 20.3261H3.71026C2.56568 20.3261 1.63782 19.3982 1.63782 18.2536Z" stroke="#241649" stroke-width="1.5" stroke-linecap="round" stroke-linejoin="round"/>
<path d="M12 16.1811C14.2891 16.1811 16.1449 14.3254 16.1449 12.0362C16.1449 9.74713 14.2891 7.89136 12 7.89136C9.71083 7.89136 7.8551 9.74713 7.8551 12.0362C7.8551 14.3254 9.71083 16.1811 12 16.1811Z" stroke="black" stroke-width="1.5" stroke-linecap="round" stroke-linejoin="round"/>
</g>
</svg>
