<svg width="19" height="18" viewBox="0 0 19 18" fill="none" xmlns="http://www.w3.org/2000/svg">
<path d="M6.62305 10.9714H12.5178M6.62305 6.76091H9.57042" stroke="#AAAAAA" stroke-width="1.5" stroke-linecap="round" stroke-linejoin="round"/>
<path d="M11.3983 16.353C14.9209 16.1188 17.7268 13.2731 17.9576 9.70064C18.0028 9.00152 18.0028 8.27752 17.9576 7.5784C17.7268 4.0059 14.9209 1.16022 11.3983 0.926063C10.1966 0.846179 8.94189 0.846342 7.74259 0.926063C4.22006 1.16022 1.41418 4.0059 1.1833 7.5784C1.13812 8.27752 1.13812 9.00152 1.1833 9.70064C1.26739 11.0018 1.84283 12.2065 2.52028 13.2238C2.91363 13.9359 2.65404 14.8248 2.24433 15.6012C1.94892 16.161 1.80121 16.4409 1.91981 16.6431C2.0384 16.8453 2.30332 16.8518 2.83314 16.8647C3.88092 16.8902 4.58746 16.5932 5.1483 16.1796C5.46639 15.945 5.62543 15.8277 5.73505 15.8143C5.84466 15.8008 6.06038 15.8896 6.49174 16.0673C6.87944 16.227 7.3296 16.3255 7.74259 16.353C8.94189 16.4327 10.1966 16.4329 11.3983 16.353Z" stroke="#AAAAAA" stroke-width="1.5" stroke-linejoin="round"/>
</svg>
