<svg width="26" height="26" viewBox="0 0 26 26" fill="none" xmlns="http://www.w3.org/2000/svg">
<path d="M9.31226 16.1896C9.31226 12.8656 9.31226 11.2036 10.374 10.1709C11.4357 9.13831 13.1445 9.13831 16.5621 9.13831L17.7704 9.13831C21.188 9.13831 22.8968 9.13831 23.9586 10.1709C25.0203 11.2036 25.0203 12.8656 25.0203 16.1896V17.3648C25.0203 20.6889 25.0203 22.3509 23.9586 23.3835C22.8968 24.4162 21.188 24.4162 17.7704 24.4162H16.5621C13.1445 24.4162 11.4357 24.4162 10.374 23.3835C9.31226 22.3509 9.31226 20.6889 9.31226 17.3648L9.31226 16.1896Z" stroke="#AAAAAA" stroke-width="1.5" stroke-linecap="round" stroke-linejoin="round"/>
<path d="M18.9787 9.13852C18.9759 5.66329 18.9218 3.86321 17.8818 2.63066C17.681 2.39264 17.4565 2.17438 17.2118 1.97904C15.875 0.911988 13.8889 0.911988 9.91657 0.911987C5.94427 0.911987 3.95813 0.911987 2.62131 1.97904C2.37659 2.17438 2.15218 2.39263 1.95134 2.63066C0.854249 3.93086 0.854248 5.86262 0.854248 9.72613C0.854248 13.5896 0.854248 15.5214 1.95134 16.8216C2.15218 17.0596 2.37658 17.2779 2.62131 17.4732C3.88856 18.4848 5.73933 18.5374 9.31241 18.5401" stroke="#AAAAAA" stroke-width="1.5" stroke-linecap="round" stroke-linejoin="round"/>
</svg>
