<svg width="15" height="16" viewBox="0 0 15 16" fill="none" xmlns="http://www.w3.org/2000/svg">
<path d="M13.05 3.44995L12.6162 10.4675C12.5054 12.2605 12.45 13.1569 12.0006 13.8015C11.7784 14.1201 11.4923 14.3891 11.1605 14.5912C10.4895 15 9.59134 15 7.79497 15C5.99623 15 5.09686 15 4.42539 14.5904C4.09341 14.3879 3.80725 14.1185 3.58513 13.7993C3.13586 13.1538 3.08167 12.256 2.97327 10.4606L2.55005 3.44995" stroke="#AAAAAA" stroke-width="1.5" stroke-linecap="round"/>
<path d="M14.1 3.44995H1.5" stroke="#AAAAAA" stroke-width="1.5" stroke-linecap="round"/>
<path d="M10.6391 3.45L10.1612 2.46421C9.84377 1.80938 9.68505 1.48197 9.41126 1.27776C9.35053 1.23247 9.28623 1.19218 9.21898 1.15729C8.9158 1 8.55195 1 7.82423 1C7.07824 1 6.70525 1 6.39704 1.16388C6.32873 1.20021 6.26355 1.24213 6.20217 1.28922C5.92521 1.50169 5.7705 1.84109 5.46109 2.51988L5.03711 3.45" stroke="#AAAAAA" stroke-width="1.5" stroke-linecap="round"/>
<path d="M6.05005 11.1499L6.05005 6.9499" stroke="#AAAAAA" stroke-width="1.5" stroke-linecap="round"/>
<path d="M9.55005 11.15L9.55005 6.94995" stroke="#AAAAAA" stroke-width="1.5" stroke-linecap="round"/>
</svg>
