<svg width="28" height="22" viewBox="0 0 28 22" fill="none" xmlns="http://www.w3.org/2000/svg">
<path d="M28 3.97339V3.53156C28 1.86801 26.6466 0.514648 24.9831 0.514648H3.01691C1.35336 0.514648 0 1.86801 0 3.53156V3.97339V3.97661V18.4686C0 20.1321 1.35336 21.4854 3.01691 21.4854H24.9833C26.6467 21.4854 28 20.1321 28 18.4686V3.97661C28 3.97557 28 3.97448 28 3.97339ZM3.01691 2.15529H24.9831C25.7419 2.15529 26.3594 2.77266 26.3594 3.53156V3.53195L15.3728 10.8563C14.6415 11.3438 13.3586 11.3438 12.6274 10.8564L1.64064 3.53189V3.53151C1.64064 2.77266 2.25801 2.15529 3.01691 2.15529ZM24.9833 19.8448H3.01691C2.25801 19.8448 1.64064 19.2274 1.64064 18.4686V5.50366L11.7174 12.2214C12.3574 12.6481 13.1786 12.8614 14.0001 12.8614C14.8213 12.8614 15.6428 12.6481 16.2828 12.2214L26.3594 5.50366V18.4686C26.3594 19.2274 25.742 19.8448 24.9833 19.8448Z" fill="#AAAAAA"/>
</svg>
