<svg width="40" height="41" viewBox="0 0 40 41" fill="none" xmlns="http://www.w3.org/2000/svg">
<rect y="0.380859" width="40" height="40" rx="20" fill="#0286F2"/>
<path d="M30.8647 22.1831C30.8647 22.6078 30.7352 22.9812 30.5398 23.2418C30.3444 23.5023 30.0966 23.6363 29.8475 23.6363C29.5983 23.6363 29.3505 23.5023 29.1551 23.2418C28.9597 22.9812 28.8302 22.6078 28.8302 22.1831C28.8302 21.7583 28.9597 21.385 29.1551 21.1244C29.3505 20.8638 29.5983 20.7299 29.8475 20.7299C30.0966 20.7299 30.3444 20.8638 30.5398 21.1244C30.7352 21.385 30.8647 21.7583 30.8647 22.1831Z" fill="#DEB3A3" stroke="#150C0C" stroke-width="0.581295"/>
<path d="M11.4805 22.1831C11.4805 22.6078 11.351 22.9812 11.1555 23.2418C10.9601 23.5023 10.7124 23.6363 10.4632 23.6363C10.214 23.6363 9.96626 23.5023 9.77087 23.2418C9.57541 22.9812 9.44592 22.6078 9.44592 22.1831C9.44592 21.7583 9.57541 21.385 9.77087 21.1244C9.96626 20.8638 10.214 20.7299 10.4632 20.7299C10.7124 20.7299 10.9601 20.8638 11.1555 21.1244C11.351 21.385 11.4805 21.7583 11.4805 22.1831Z" fill="#DEB3A3" stroke="#150C0C" stroke-width="0.581295"/>
<path d="M20.0543 11.7921L20.0549 11.7921L20.0671 11.7921C25.1372 11.8025 29.1756 14.9019 29.1756 18.8036C29.1756 19.7128 29.2318 20.4165 29.2968 21.2302C29.3109 21.4068 29.3254 21.5886 29.3398 21.7788C29.4209 22.8466 29.5006 23.8978 29.5006 24.9538C29.5006 27.1756 28.1366 29.1445 26.2436 30.5747C24.351 32.0046 21.9818 32.8543 20.0748 32.8639L20.0707 32.864L20.0673 32.8641L20.0551 32.864L20.054 32.864L20.0418 32.8641L20.0385 32.864V32.864L20.0344 32.864C18.1273 32.8543 15.7581 32.0046 13.8655 30.5747C11.9726 29.1445 10.6085 27.1756 10.6085 24.9538C10.6085 23.8978 10.6882 22.8466 10.7693 21.7788C10.7837 21.5886 10.7983 21.4068 10.8124 21.2302C10.8773 20.4165 10.9335 19.7128 10.9335 18.8036C10.9335 14.9018 14.9722 11.8024 20.0424 11.7921L20.0543 11.7921Z" fill="#DEB3A3" stroke="#150C0C" stroke-width="0.581295"/>
<mask id="path-5-inside-1_544_3554" fill="white">
<path fill-rule="evenodd" clip-rule="evenodd" d="M29.6636 9.65476C33.2512 8.09929 24.3909 4.67217 18.3075 7.3097C16.9648 7.89187 15.805 8.60909 14.8787 9.37788C14.8412 9.37667 14.8037 9.37606 14.7661 9.37606C11.9482 9.37606 9.66382 12.7834 9.66382 16.9866C9.66382 18.9947 10.1853 20.8212 11.0372 22.1813C11.0628 21.839 11.0932 21.4969 11.1237 21.1542C11.1375 20.9999 11.1512 20.853 11.1645 20.7108C11.2255 20.0589 11.2774 19.5047 11.2774 18.7855C11.2774 15.4733 15.2693 12.9368 20.1152 12.9285L20.1272 12.9285L20.1392 12.9285C24.9851 12.9368 28.977 15.4733 28.977 18.7855C28.977 19.5047 29.0288 20.0589 29.0898 20.7108C29.1031 20.853 29.1169 20.9999 29.1306 21.1542C29.195 21.8772 29.2592 22.5981 29.2774 23.3218C30.0831 21.8597 30.5904 19.7302 30.5904 17.3593C30.5904 14.3378 29.7664 11.7084 28.5511 10.3526C28.8617 10.0817 29.2253 9.84479 29.6636 9.65476Z"/>
</mask>
<path fill-rule="evenodd" clip-rule="evenodd" d="M29.6636 9.65476C33.2512 8.09929 24.3909 4.67217 18.3075 7.3097C16.9648 7.89187 15.805 8.60909 14.8787 9.37788C14.8412 9.37667 14.8037 9.37606 14.7661 9.37606C11.9482 9.37606 9.66382 12.7834 9.66382 16.9866C9.66382 18.9947 10.1853 20.8212 11.0372 22.1813C11.0628 21.839 11.0932 21.4969 11.1237 21.1542C11.1375 20.9999 11.1512 20.853 11.1645 20.7108C11.2255 20.0589 11.2774 19.5047 11.2774 18.7855C11.2774 15.4733 15.2693 12.9368 20.1152 12.9285L20.1272 12.9285L20.1392 12.9285C24.9851 12.9368 28.977 15.4733 28.977 18.7855C28.977 19.5047 29.0288 20.0589 29.0898 20.7108C29.1031 20.853 29.1169 20.9999 29.1306 21.1542C29.195 21.8772 29.2592 22.5981 29.2774 23.3218C30.0831 21.8597 30.5904 19.7302 30.5904 17.3593C30.5904 14.3378 29.7664 11.7084 28.5511 10.3526C28.8617 10.0817 29.2253 9.84479 29.6636 9.65476Z" fill="#4B301C"/>
<path d="M18.3075 7.3097L18.5388 7.84303L18.5388 7.84303L18.3075 7.3097ZM29.6636 9.65476L29.8948 10.1881L29.8948 10.1881L29.6636 9.65476ZM14.8787 9.37788L14.8599 9.95887L15.0803 9.96599L15.2499 9.82519L14.8787 9.37788ZM11.0372 22.1813L10.5446 22.4898L11.485 23.9911L11.6169 22.2245L11.0372 22.1813ZM11.1237 21.1542L11.7027 21.2057L11.7027 21.2057L11.1237 21.1542ZM11.1645 20.7108L10.5858 20.6566L10.5858 20.6566L11.1645 20.7108ZM20.1152 12.9285L20.1144 12.3472L20.1142 12.3472L20.1152 12.9285ZM20.1272 12.9285L20.1269 12.3472L20.1264 12.3472L20.1272 12.9285ZM20.1392 12.9285L20.1402 12.3472L20.1389 12.3472L20.1392 12.9285ZM29.0898 20.7108L28.5111 20.7649L28.5111 20.7649L29.0898 20.7108ZM29.1306 21.1542L28.5516 21.2057L28.5516 21.2057L29.1306 21.1542ZM29.2774 23.3218L28.6963 23.3365L28.7505 25.4827L29.7866 23.6023L29.2774 23.3218ZM28.5511 10.3526L28.169 9.91455L27.725 10.3019L28.1183 10.7406L28.5511 10.3526ZM18.5388 7.84303C21.422 6.59297 25.0125 6.77214 27.4525 7.46881C28.0567 7.64132 28.5763 7.84181 28.9865 8.05141C29.4051 8.26528 29.6742 8.47063 29.814 8.63625C29.8817 8.71636 29.9029 8.76818 29.9087 8.78914C29.9112 8.7984 29.9106 8.80079 29.9107 8.79813C29.9108 8.79513 29.9115 8.79336 29.911 8.7948C29.9057 8.80879 29.833 8.94769 29.4323 9.12143L29.8948 10.1881C30.391 9.97295 30.8262 9.6645 30.9993 9.20364C31.1908 8.69385 30.9873 8.22368 30.7023 7.8862C30.421 7.55301 29.9988 7.26305 29.5155 7.01613C29.0239 6.76494 28.4311 6.53915 27.7717 6.3509C25.1577 5.60453 21.2764 5.3889 18.0763 6.77638L18.5388 7.84303ZM15.2499 9.82519C16.1307 9.09419 17.2426 8.40499 18.5388 7.84303L18.0763 6.77638C16.687 7.37874 15.4793 8.124 14.5074 8.93056L15.2499 9.82519ZM14.7661 9.95735C14.7974 9.95735 14.8287 9.95786 14.8599 9.95887L14.8974 8.79688C14.8538 8.79547 14.81 8.79476 14.7661 8.79476V9.95735ZM10.2451 16.9866C10.2451 14.9844 10.7902 13.1979 11.6411 11.9288C12.4944 10.6559 13.6104 9.95735 14.7661 9.95735V8.79476C13.1038 8.79476 11.6687 9.79984 10.6754 11.2814C9.67959 12.7668 9.08252 14.7856 9.08252 16.9866H10.2451ZM11.5298 21.8727C10.7426 20.6159 10.2451 18.899 10.2451 16.9866H9.08252C9.08252 19.0904 9.62796 21.0266 10.5446 22.4898L11.5298 21.8727ZM11.6169 22.2245C11.6421 21.8871 11.6722 21.5491 11.7027 21.2057L10.5447 21.1027C10.5143 21.4446 10.4835 21.7909 10.4575 22.138L11.6169 22.2245ZM11.7027 21.2057C11.7163 21.053 11.73 20.9073 11.7433 20.7649L10.5858 20.6566C10.5725 20.7987 10.5586 20.9469 10.5447 21.1027L11.7027 21.2057ZM11.7433 20.7649C11.8042 20.1135 11.8587 19.5349 11.8587 18.7855H10.6961C10.6961 19.4746 10.6468 20.0044 10.5858 20.6566L11.7433 20.7649ZM11.8587 18.7855C11.8587 17.3856 12.7002 16.0839 14.1973 15.1045C15.6925 14.1263 17.7877 13.5138 20.1162 13.5098L20.1142 12.3472C17.5968 12.3515 15.2731 13.0114 13.5608 14.1316C11.8505 15.2505 10.6961 16.8732 10.6961 18.7855H11.8587ZM20.116 13.5098L20.1279 13.5098L20.1264 12.3472L20.1144 12.3472L20.116 13.5098ZM20.1274 13.5098L20.1394 13.5098L20.1389 12.3472L20.1269 12.3472L20.1274 13.5098ZM20.1382 13.5098C22.4667 13.5138 24.5619 14.1263 26.0571 15.1045C27.5542 16.0839 28.3957 17.3856 28.3957 18.7855H29.5583C29.5583 16.8732 28.4038 15.2505 26.6935 14.1316C24.9813 13.0114 22.6576 12.3515 20.1402 12.3472L20.1382 13.5098ZM28.3957 18.7855C28.3957 19.5349 28.4501 20.1135 28.5111 20.7649L29.6686 20.6566C29.6076 20.0044 29.5583 19.4746 29.5583 18.7855H28.3957ZM28.5111 20.7649C28.5244 20.9073 28.538 21.053 28.5516 21.2057L29.7096 21.1027C29.6958 20.9469 29.6819 20.7987 29.6686 20.6566L28.5111 20.7649ZM28.5516 21.2057C28.6163 21.9319 28.6786 22.6343 28.6963 23.3365L29.8585 23.3071C29.8397 22.5618 29.7737 21.8226 29.7096 21.1027L28.5516 21.2057ZM30.0091 17.3593C30.0091 19.658 29.5155 21.6852 28.7683 23.0413L29.7866 23.6023C30.6506 22.0341 31.1717 19.8024 31.1717 17.3593H30.0091ZM28.1183 10.7406C29.1998 11.9472 30.0091 14.4112 30.0091 17.3593H31.1717C31.1717 14.2644 30.333 11.4695 28.984 9.96461L28.1183 10.7406ZM29.4323 9.12143C28.9382 9.33569 28.5239 9.60498 28.169 9.91455L28.9332 10.7907C29.1996 10.5584 29.5124 10.3539 29.8948 10.1881L29.4323 9.12143Z" fill="black" mask="url(#path-5-inside-1_544_3554)"/>
<path d="M24.362 17.8326C26.0827 17.4601 27.3456 17.9113 28.2893 18.3602C28.742 18.5756 29.0022 19.1182 28.3504 18.9126C27.4269 18.6213 25.9737 18.4774 24.7895 18.7818C24.362 18.8916 23.6485 17.9871 24.362 17.8326Z" fill="#4B301C"/>
<path d="M16.3031 17.8326C14.5824 17.4601 13.3194 17.9113 12.3757 18.3602C11.923 18.5756 11.6629 19.1182 12.3146 18.9126C13.2381 18.6213 14.6914 18.4774 15.8755 18.7818C16.3031 18.8916 17.0166 17.9871 16.3031 17.8326Z" fill="#4B301C"/>
<path d="M15.6949 22.0376C15.6949 22.5136 15.1094 23.2002 14.387 23.2002C13.6647 23.2002 13.0791 22.6797 13.0791 22.0376C13.0791 21.3955 13.6647 20.875 14.387 20.875C15.1094 20.875 15.6949 21.5616 15.6949 22.0376Z" fill="#150C0C"/>
<path d="M24.4633 22.0376C24.4633 22.5136 25.0488 23.2002 25.7712 23.2002C26.4935 23.2002 27.0791 22.6797 27.0791 22.0376C27.0791 21.3955 26.4935 20.875 25.7712 20.875C25.0488 20.875 24.4633 21.5616 24.4633 22.0376Z" fill="#150C0C"/>
<ellipse cx="25.5531" cy="21.6015" rx="0.290647" ry="0.217986" fill="white" fill-opacity="0.9"/>
<ellipse cx="13.951" cy="21.6015" rx="0.290647" ry="0.217986" fill="white" fill-opacity="0.9"/>
<g clip-path="url(#clip0_544_3554)">
<ellipse cx="25.8801" cy="23.3284" rx="1.19892" ry="1" fill="#CD9E8D"/>
<ellipse cx="14.278" cy="23.3284" rx="1.19892" ry="1" fill="#CD9E8D"/>
</g>
<mask id="path-15-inside-2_544_3554" fill="white">
<path fill-rule="evenodd" clip-rule="evenodd" d="M10.5436 22.8071C10.315 23.5355 9.88184 25.1674 9.88184 27.0736C9.88184 31.1873 14.7331 34.5197 19.9818 34.5197V34.5197C25.2306 34.5197 30.0818 31.1873 30.0818 27.0736C30.0818 25.1674 29.6487 23.5355 29.4201 22.8071C29.3785 22.6744 29.1911 22.677 29.1414 22.8069C28.8007 23.6973 27.8352 25.7435 26.1581 25.7435C25.1465 25.7435 24.3117 25.3971 23.4301 25.0313C22.4438 24.622 21.3988 24.1884 19.9818 24.1884V24.1884C18.5649 24.1884 17.5199 24.622 16.5335 25.0313C15.652 25.3971 14.8172 25.7434 13.8056 25.7434C12.1284 25.7434 11.163 23.6972 10.8223 22.8068C10.7726 22.677 10.5852 22.6744 10.5436 22.8071Z"/>
</mask>
<path fill-rule="evenodd" clip-rule="evenodd" d="M10.5436 22.8071C10.315 23.5355 9.88184 25.1674 9.88184 27.0736C9.88184 31.1873 14.7331 34.5197 19.9818 34.5197V34.5197C25.2306 34.5197 30.0818 31.1873 30.0818 27.0736C30.0818 25.1674 29.6487 23.5355 29.4201 22.8071C29.3785 22.6744 29.1911 22.677 29.1414 22.8069C28.8007 23.6973 27.8352 25.7435 26.1581 25.7435C25.1465 25.7435 24.3117 25.3971 23.4301 25.0313C22.4438 24.622 21.3988 24.1884 19.9818 24.1884V24.1884C18.5649 24.1884 17.5199 24.622 16.5335 25.0313C15.652 25.3971 14.8172 25.7434 13.8056 25.7434C12.1284 25.7434 11.163 23.6972 10.8223 22.8068C10.7726 22.677 10.5852 22.6744 10.5436 22.8071Z" fill="#4B301C"/>
<path d="M10.5436 22.8071L9.98893 22.633L9.98893 22.633L10.5436 22.8071ZM19.9818 34.5197H20.5631V33.9384H19.9818V34.5197ZM19.9818 34.5197H19.4005V35.101H19.9818V34.5197ZM29.4201 22.8071L29.9747 22.633L29.9747 22.633L29.4201 22.8071ZM29.1414 22.8069L28.5985 22.5991V22.5991L29.1414 22.8069ZM23.4301 25.0313L23.6529 24.4944L23.4301 25.0313ZM19.9818 24.1884H19.4005V24.7697H19.9818V24.1884ZM19.9818 24.1884H20.5631V23.6071H19.9818V24.1884ZM16.5335 25.0313L16.7563 25.5682L16.5335 25.0313ZM10.8223 22.8068L11.3652 22.5991V22.5991L10.8223 22.8068ZM10.4631 27.0736C10.4631 25.2486 10.8791 23.6792 11.0982 22.9811L9.98893 22.633C9.75085 23.3918 9.30054 25.0862 9.30054 27.0736H10.4631ZM19.9818 33.9384C17.4742 33.9384 15.0692 33.1406 13.3035 31.8677C11.534 30.5921 10.4631 28.8875 10.4631 27.0736H9.30054C9.30054 29.3734 10.6553 31.3918 12.6236 32.8108C14.5957 34.2325 17.2407 35.101 19.9818 35.101V33.9384ZM19.4005 34.5197V34.5197H20.5631V34.5197H19.4005ZM19.9818 35.101C22.7229 35.101 25.368 34.2325 27.3401 32.8108C29.3084 31.3919 30.6631 29.3734 30.6631 27.0736H29.5005C29.5005 28.8875 28.4297 30.5921 26.6602 31.8678C24.8945 33.1407 22.4895 33.9384 19.9818 33.9384V35.101ZM30.6631 27.0736C30.6631 25.0862 30.2128 23.3918 29.9747 22.633L28.8655 22.9811C29.0845 23.6792 29.5005 25.2486 29.5005 27.0736H30.6631ZM29.9747 22.633C29.8675 22.2913 29.559 22.1258 29.2808 22.1272C29.0091 22.1286 28.7181 22.2865 28.5985 22.5991L29.6843 23.0146C29.6144 23.1973 29.4419 23.289 29.2867 23.2898C29.1251 23.2906 28.9311 23.1901 28.8655 22.9811L29.9747 22.633ZM28.5985 22.5991C28.437 23.0211 28.1356 23.6924 27.6953 24.248C27.2499 24.81 26.7388 25.1622 26.1581 25.1622V26.3248C27.2545 26.3248 28.0647 25.6538 28.6065 24.9701C29.1533 24.28 29.5051 23.483 29.6843 23.0146L28.5985 22.5991ZM26.1581 25.1622C25.2788 25.1622 24.5466 24.8652 23.6529 24.4944L23.2074 25.5682C24.0768 25.929 25.0141 26.3248 26.1581 26.3248V25.1622ZM23.6529 24.4944C22.6661 24.0849 21.5258 23.6071 19.9818 23.6071V24.7697C21.2718 24.7697 22.2214 25.1591 23.2074 25.5682L23.6529 24.4944ZM19.4005 24.1884V24.1884H20.5631V24.1884H19.4005ZM16.7563 25.5682C17.7422 25.1591 18.6919 24.7697 19.9818 24.7697V23.6071C18.4379 23.6071 17.2975 24.0849 16.3107 24.4944L16.7563 25.5682ZM13.8056 26.3247C14.9496 26.3247 15.8868 25.929 16.7563 25.5682L16.3107 24.4944C15.4171 24.8652 14.6849 25.1622 13.8056 25.1622V26.3247ZM10.2794 23.0146C10.4586 23.483 10.8103 24.28 11.3572 24.9701C11.899 25.6538 12.7091 26.3247 13.8056 26.3247V25.1622C13.2249 25.1622 12.7137 24.81 12.2684 24.248C11.828 23.6924 11.5267 23.0211 11.3652 22.5991L10.2794 23.0146ZM11.0982 22.9811C11.0326 23.1901 10.8386 23.2906 10.677 23.2898C10.5218 23.289 10.3493 23.1973 10.2794 23.0146L11.3652 22.5991C11.2456 22.2865 10.9545 22.1286 10.6828 22.1272C10.4047 22.1258 10.0962 22.2913 9.98893 22.633L11.0982 22.9811Z" fill="black" mask="url(#path-15-inside-2_544_3554)"/>
<path d="M17.6618 27.2691C18.2585 26.8391 19.2208 26.6113 20.2001 26.6154C21.1794 26.6195 22.0828 26.8546 22.584 27.2553C22.6138 27.3812 22.5966 27.5425 22.5113 27.7367C22.4121 27.9626 22.2306 28.2068 21.984 28.4339C21.4873 28.8912 20.7802 29.2311 20.1018 29.2311C19.4379 29.2311 18.7462 28.8442 18.2545 28.3519C18.0113 28.1084 17.8326 27.8541 17.7362 27.6349C17.6566 27.4537 17.6488 27.3357 17.6618 27.2691Z" fill="#F9ECEC" stroke="#150C0C" stroke-width="0.581295"/>
<defs>
<clipPath id="clip0_544_3554">
<rect width="13.8784" height="1.81655" fill="white" transform="translate(13.0791 22.3284)"/>
</clipPath>
</defs>
</svg>
