<svg width="15" height="15" viewBox="0 0 15 15" fill="none" xmlns="http://www.w3.org/2000/svg">
<path fill-rule="evenodd" clip-rule="evenodd" d="M14.1969 3.36924C14.1969 4.83966 13.0044 6.03218 11.534 6.03218C10.0636 6.03218 8.8717 4.83966 8.8717 3.36924C8.8717 1.89882 10.0636 0.706299 11.534 0.706299C13.0044 0.706299 14.1969 1.89882 14.1969 3.36924Z" stroke="white" stroke-linecap="round" stroke-linejoin="round"/>
<path fill-rule="evenodd" clip-rule="evenodd" d="M6.47464 3.36924C6.47464 4.83966 5.28278 6.03218 3.8117 6.03218C2.34193 6.03218 1.14941 4.83966 1.14941 3.36924C1.14941 1.89882 2.34193 0.706299 3.8117 0.706299C5.28278 0.706299 6.47464 1.89882 6.47464 3.36924Z" stroke="white" stroke-linecap="round" stroke-linejoin="round"/>
<path fill-rule="evenodd" clip-rule="evenodd" d="M14.1969 11.044C14.1969 12.5145 13.0044 13.7063 11.534 13.7063C10.0636 13.7063 8.8717 12.5145 8.8717 11.044C8.8717 9.57362 10.0636 8.3811 11.534 8.3811C13.0044 8.3811 14.1969 9.57362 14.1969 11.044Z" stroke="white" stroke-linecap="round" stroke-linejoin="round"/>
<path fill-rule="evenodd" clip-rule="evenodd" d="M6.47464 11.044C6.47464 12.5145 5.28278 13.7063 3.8117 13.7063C2.34193 13.7063 1.14941 12.5145 1.14941 11.044C1.14941 9.57362 2.34193 8.3811 3.8117 8.3811C5.28278 8.3811 6.47464 9.57362 6.47464 11.044Z" stroke="white" stroke-linecap="round" stroke-linejoin="round"/>
</svg>
