<svg width="19" height="19" viewBox="0 0 19 19" fill="none" xmlns="http://www.w3.org/2000/svg">
<line x1="14.5951" y1="10.262" x2="14.5951" y2="17.9999" stroke="#AAAAAA" stroke-width="1.3"/>
<line x1="10.5881" y1="14.0775" x2="18.3261" y2="14.0775" stroke="#AAAAAA" stroke-width="1.3"/>
<path fill-rule="evenodd" clip-rule="evenodd" d="M17.8226 4.38143C17.8226 6.24858 16.3139 7.76285 14.4535 7.76285C12.5931 7.76285 11.0852 6.24858 11.0852 4.38143C11.0852 2.51427 12.5931 1 14.4535 1C16.3139 1 17.8226 2.51427 17.8226 4.38143Z" stroke="#AAAAAA" stroke-width="1.3" stroke-linecap="round" stroke-linejoin="round"/>
<path fill-rule="evenodd" clip-rule="evenodd" d="M8.05249 4.38143C8.05249 6.24858 6.54456 7.76285 4.68337 7.76285C2.82383 7.76285 1.31506 6.24858 1.31506 4.38143C1.31506 2.51427 2.82383 1 4.68337 1C6.54456 1 8.05249 2.51427 8.05249 4.38143Z" stroke="#AAAAAA" stroke-width="1.3" stroke-linecap="round" stroke-linejoin="round"/>
<path fill-rule="evenodd" clip-rule="evenodd" d="M8.05249 14.1268C8.05249 15.9939 6.54456 17.5074 4.68337 17.5074C2.82383 17.5074 1.31506 15.9939 1.31506 14.1268C1.31506 12.2596 2.82383 10.7454 4.68337 10.7454C6.54456 10.7454 8.05249 12.2596 8.05249 14.1268Z" stroke="#AAAAAA" stroke-width="1.3" stroke-linecap="round" stroke-linejoin="round"/>
</svg>
