<svg width="92" height="78" viewBox="0 0 92 78" fill="none" xmlns="http://www.w3.org/2000/svg">
<path d="M43.4285 47.0873L36.3075 45.6702L36.4195 45.1757L42.715 46.4273L43.4285 47.0873Z" fill="white"/>
<path d="M77.3618 58.3282C78.5486 58.3282 79.5107 57.3661 79.5107 56.1793C79.5107 54.9924 78.5486 54.0303 77.3618 54.0303C76.175 54.0303 75.2129 54.9924 75.2129 56.1793C75.2129 57.3661 76.175 58.3282 77.3618 58.3282Z" fill="white"/>
<path d="M49.7326 3.06991C50.5803 3.06991 51.2675 2.38269 51.2675 1.53495C51.2675 0.687223 50.5803 0 49.7326 0C48.8849 0 48.1976 0.687223 48.1976 1.53495C48.1976 2.38269 48.8849 3.06991 49.7326 3.06991Z" fill="white"/>
<path d="M16.2705 50.6535C17.1182 50.6535 17.8054 49.9663 17.8054 49.1186C17.8054 48.2708 17.1182 47.5836 16.2705 47.5836C15.4228 47.5836 14.7355 48.2708 14.7355 49.1186C14.7355 49.9663 15.4228 50.6535 16.2705 50.6535Z" fill="white"/>
<path d="M69.994 45.4344C70.8417 45.4344 71.529 44.7472 71.529 43.8995C71.529 43.0517 70.8417 42.3645 69.994 42.3645C69.1463 42.3645 68.459 43.0517 68.459 43.8995C68.459 44.7472 69.1463 45.4344 69.994 45.4344Z" fill="white"/>
<path d="M23.3313 66.3101C24.1791 66.3101 24.8663 65.6229 24.8663 64.7751C24.8663 63.9274 24.1791 63.2402 23.3313 63.2402C22.4836 63.2402 21.7964 63.9274 21.7964 64.7751C21.7964 65.6229 22.4836 66.3101 23.3313 66.3101Z" fill="white"/>
<path d="M71.8359 70.608C72.6836 70.608 73.3708 69.9208 73.3708 69.073C73.3708 68.2253 72.6836 67.5381 71.8359 67.5381C70.9882 67.5381 70.3009 68.2253 70.3009 69.073C70.3009 69.9208 70.9882 70.608 71.8359 70.608Z" fill="white"/>
<path d="M58.3283 15.9635C59.176 15.9635 59.8632 15.2762 59.8632 14.4285C59.8632 13.5808 59.176 12.8936 58.3283 12.8936C57.4806 12.8936 56.7933 13.5808 56.7933 14.4285C56.7933 15.2762 57.4806 15.9635 58.3283 15.9635Z" fill="white"/>
<path d="M0.312132 32.8409C1.91939 32.9421 3.47977 33.4228 4.86537 34.2436C6.25097 35.0643 7.42234 36.2018 8.28346 37.5626C8.52479 37.9484 8.83982 38.3724 8.67276 38.8472C8.61456 39.0293 8.49632 39.1863 8.33736 39.2924C8.1784 39.3986 7.98812 39.4477 7.79764 39.4317C7.56015 39.3806 7.34607 39.2527 7.18843 39.0679C7.03079 38.8831 6.93834 38.6515 6.92535 38.4089C6.91235 38.1663 6.97953 37.9262 7.11651 37.7256C7.2535 37.5249 7.45269 37.375 7.68336 37.2987C8.7981 36.8232 9.92276 37.5581 10.8308 38.1446C12.8998 39.4809 15.1755 40.6894 17.6825 40.8417C20.0021 40.9826 22.4895 40.0731 23.7797 38.0616C24.0054 37.7097 23.445 37.3845 23.2204 37.7347C21.9408 39.7296 19.3541 40.4461 17.105 40.1378C15.7647 39.9262 14.4705 39.4869 13.2784 38.8386C12.6602 38.5178 12.0607 38.1622 11.4732 37.7883C10.9142 37.3983 10.3217 37.0586 9.70268 36.7733C8.67027 36.3492 7.30353 36.3823 6.58237 37.3588C5.90958 38.2697 6.42953 39.7863 7.55481 40.0424C7.80166 40.091 8.05673 40.0777 8.29715 40.0035C8.53757 39.9294 8.75582 39.7967 8.93235 39.6174C9.10888 39.4381 9.23817 39.2178 9.30861 38.9763C9.37906 38.7348 9.38847 38.4795 9.336 38.2335C9.22372 37.697 8.81979 37.1721 8.50713 36.7336C7.5677 35.4121 6.34376 34.3181 4.92548 33.5323C3.50719 32.7465 1.93069 32.2888 0.312095 32.1931C-0.104575 32.1725 -0.103488 32.8203 0.312095 32.8409L0.312132 32.8409Z" fill="white"/>
<path d="M91.093 52.449C90.016 51.7556 89.1187 50.8169 88.4745 49.7098C87.8304 48.6027 87.4577 47.3587 87.3872 46.0798C87.3691 45.7183 87.3147 45.3018 87.6148 45.0368C87.7258 44.9329 87.8687 44.8697 88.0203 44.8576C88.1718 44.8455 88.323 44.8851 88.4491 44.9701C88.5942 45.0976 88.6933 45.2694 88.7312 45.4589C88.769 45.6484 88.7435 45.845 88.6584 46.0185C88.5734 46.192 88.4337 46.3328 88.2608 46.419C88.0879 46.5052 87.8914 46.5322 87.7017 46.4957C86.7432 46.3938 86.2469 45.4475 85.8437 44.6883C84.9248 42.9582 83.8128 41.2367 82.1307 40.1592C80.5743 39.1622 78.4943 38.8296 76.8185 39.7265C76.5254 39.8834 76.7885 40.3265 77.0803 40.1704C78.7422 39.2809 80.8164 39.786 82.2589 40.8719C83.1077 41.5384 83.8362 42.3452 84.4128 43.2575C84.7178 43.7199 84.9963 44.1993 85.2594 44.6866C85.4964 45.1742 85.7762 45.6398 86.0956 46.0779C86.6482 46.7726 87.6102 47.2794 88.4896 46.8808C88.6855 46.7794 88.855 46.6335 88.9845 46.4549C89.1139 46.2763 89.1999 46.0699 89.2353 45.8522C89.2708 45.6344 89.2548 45.4114 89.1887 45.2009C89.1225 44.9905 89.0081 44.7984 88.8544 44.6401C88.7019 44.5106 88.5196 44.421 88.3238 44.3793C88.1281 44.3376 87.9251 44.3452 87.733 44.4013C87.5409 44.4573 87.3657 44.5602 87.2232 44.7006C87.0806 44.8411 86.9752 45.0147 86.9162 45.2059C86.8257 45.6555 86.8238 46.1185 86.9105 46.5689C87.0507 47.8508 87.4766 49.085 88.157 50.1805C88.8374 51.276 89.7549 52.2049 90.8419 52.8988C91.1233 53.0747 91.3736 52.6243 91.093 52.449L91.093 52.449Z" fill="white"/>
<path d="M38.1257 9.9481C36.8473 9.86757 35.6063 9.48525 34.5043 8.83247C33.4022 8.17968 32.4706 7.27503 31.7857 6.19266C31.5937 5.88582 31.3432 5.54862 31.4761 5.17094C31.5223 5.02613 31.6164 4.9013 31.7428 4.81686C31.8692 4.73242 32.0206 4.69337 32.1721 4.70609C32.361 4.74675 32.5312 4.84843 32.6566 4.99544C32.782 5.14245 32.8555 5.32664 32.8659 5.51958C32.8762 5.71252 32.8228 5.9035 32.7138 6.06307C32.6048 6.22264 32.4464 6.34192 32.263 6.40254C31.3764 6.78072 30.4819 6.19626 29.7597 5.72981C28.1141 4.66695 26.3041 3.70575 24.3101 3.58462C22.4653 3.47257 20.4869 4.19593 19.4608 5.7958C19.2812 6.0757 19.727 6.33435 19.9056 6.05582C20.9233 4.46915 22.9806 3.89929 24.7695 4.14453C25.8355 4.31275 26.8648 4.66222 27.8129 5.1778C28.3046 5.43296 28.7814 5.71582 29.2487 6.01316C29.6933 6.32339 30.1645 6.59354 30.6569 6.82044C31.478 7.15774 32.565 7.13139 33.1386 6.35479C33.2603 6.17076 33.3372 5.96082 33.3632 5.74175C33.3892 5.52268 33.3636 5.30056 33.2885 5.09314C33.2133 4.88573 33.0907 4.69878 32.9304 4.54724C32.77 4.39569 32.5765 4.28376 32.3652 4.22038C32.1689 4.18168 31.966 4.1923 31.7748 4.25129C31.5835 4.31028 31.41 4.4158 31.2696 4.55839C31.1292 4.70098 31.0263 4.87617 30.9703 5.06828C30.9143 5.26039 30.9068 5.46339 30.9485 5.6591C31.0886 6.09581 31.3126 6.50101 31.6078 6.85201C32.355 7.90311 33.3284 8.7732 34.4564 9.39819C35.5845 10.0232 36.8383 10.3871 38.1257 10.4633C38.4571 10.4797 38.4562 9.96445 38.1257 9.9481L38.1257 9.9481Z" fill="white"/>
<path d="M39.2948 26.2698H37.7599V31.3132H39.2948V26.2698Z" fill="white"/>
<path d="M14.4767 22.75L15.5435 21.6832L12.0384 18.1782L10.9717 19.2449L14.4767 22.75Z" fill="white"/>
<path d="M57.6343 33.3489L58.701 34.4156L62.2061 30.9106L61.1394 29.8439L57.6343 33.3489Z" fill="white"/>
<path d="M14.0416 76.9417L15.1084 78.0084L18.6134 74.5034L17.5467 73.4366L14.0416 76.9417Z" fill="white"/>
</svg>
