<svg width="14" height="18" viewBox="0 0 14 18" fill="none" xmlns="http://www.w3.org/2000/svg">
<path fill-rule="evenodd" clip-rule="evenodd" d="M6.83487 16.8663C3.76824 16.8663 1.14941 16.3891 1.14941 14.4779C1.14941 12.5668 3.75163 10.8025 6.83487 10.8025C9.9015 10.8025 12.5203 12.5497 12.5203 14.4608C12.5203 16.3712 9.91811 16.8663 6.83487 16.8663Z" stroke="#AAAAAA" stroke-width="1.5" stroke-linecap="round" stroke-linejoin="round"/>
<path fill-rule="evenodd" clip-rule="evenodd" d="M6.8289 8.15408C8.84135 8.15408 10.4725 6.52297 10.4725 4.51052C10.4725 2.49807 8.84135 0.866211 6.8289 0.866211C4.81645 0.866211 3.18459 2.49807 3.18459 4.51052C3.1778 6.51617 4.79757 8.14728 6.80323 8.15408C6.81229 8.15408 6.82059 8.15408 6.8289 8.15408Z" stroke="#AAAAAA" stroke-width="1.5" stroke-linecap="round" stroke-linejoin="round"/>
</svg>
