<svg width="16" height="16" viewBox="0 0 16 16" fill="none" xmlns="http://www.w3.org/2000/svg">
<path fill-rule="evenodd" clip-rule="evenodd" d="M11.2798 1H4.71946C2.4333 1 1 2.6187 1 4.90941V11.0906C1 13.3813 2.42649 15 4.71946 15H11.279C13.5728 15 15 13.3813 15 11.0906V4.90941C15 2.6187 13.5728 1 11.2798 1Z" stroke="#130F26" stroke-width="1.5" stroke-linecap="round" stroke-linejoin="round"/>
<path fill-rule="evenodd" clip-rule="evenodd" d="M7.00789 7.9999C7.00789 8.77406 6.38054 9.40142 5.60638 9.40142C4.83222 9.40142 4.20486 8.77406 4.20486 7.9999C4.20486 7.22574 4.83222 6.59839 5.60638 6.59839H5.60865C6.3813 6.59915 7.00789 7.2265 7.00789 7.9999Z" stroke="#130F26" stroke-width="1.5" stroke-linecap="round" stroke-linejoin="round"/>
<path d="M7.01007 8H11.7913V9.40151" stroke="#130F26" stroke-width="1.5" stroke-linecap="round" stroke-linejoin="round"/>
<path d="M9.65102 9.40151V8" stroke="#130F26" stroke-width="1.5" stroke-linecap="round" stroke-linejoin="round"/>
</svg>
