<svg width="16" height="17" viewBox="0 0 16 17" fill="none" xmlns="http://www.w3.org/2000/svg">
<path d="M15.5483 0.715586C15.1481 0.304878 14.5559 0.15187 14.0037 0.312932L1.1264 4.05762C0.543759 4.21949 0.13079 4.68415 0.0195441 5.27444C-0.0941024 5.8752 0.30286 6.63783 0.821472 6.95673L4.84792 9.43145C5.26089 9.68512 5.79391 9.6215 6.13565 9.27683L10.7463 4.63744C10.9784 4.39585 11.3626 4.39585 11.5947 4.63744C11.8268 4.87098 11.8268 5.24948 11.5947 5.49107L6.97599 10.1313C6.63345 10.4751 6.56943 11.0107 6.82153 11.4262L9.28174 15.493C9.56985 15.9762 10.0661 16.25 10.6103 16.25C10.6743 16.25 10.7463 16.25 10.8104 16.2419C11.4346 16.1614 11.9308 15.7346 12.1149 15.1306L15.9325 2.26983C16.1005 1.72222 15.9485 1.12629 15.5483 0.715586Z" fill="white"/>
</svg>
