<svg width="16" height="19" viewBox="0 0 16 19" fill="none" xmlns="http://www.w3.org/2000/svg">
<path d="M9.65392 14.1902L6.31832 12.1753C5.73846 12.8615 4.91329 13.2904 3.99766 13.2904C2.24272 13.2904 0.820068 11.7149 0.820068 9.77152C0.820068 7.82811 2.24272 6.25266 3.99766 6.25266C4.91324 6.25266 5.73838 6.68149 6.31823 7.36766L9.65392 5.35283C9.59156 5.07772 9.55844 4.78975 9.55844 4.49323C9.55844 2.54981 10.9811 0.974365 12.736 0.974365C14.4909 0.974365 15.9136 2.54981 15.9136 4.49323C15.9136 6.43664 14.4909 8.01209 12.736 8.01209C11.8204 8.01209 10.9953 7.58324 10.4154 6.89702L7.07973 8.91187C7.14212 9.18695 7.17524 9.47497 7.17524 9.77152C7.17524 10.0681 7.14213 10.356 7.07977 10.6311L10.4154 12.646C10.9953 11.9598 11.8204 11.531 12.736 11.531C14.4909 11.531 15.9136 13.1064 15.9136 15.0498C15.9136 16.9932 14.4909 18.5687 12.736 18.5687C10.9811 18.5687 9.55844 16.9932 9.55844 15.0498C9.55844 14.7533 9.59156 14.4652 9.65392 14.1902ZM3.99766 11.531C4.87512 11.531 5.58645 10.7433 5.58645 9.77152C5.58645 8.79979 4.87512 8.01209 3.99766 8.01209C3.12019 8.01209 2.40886 8.79979 2.40886 9.77152C2.40886 10.7433 3.12019 11.531 3.99766 11.531ZM12.736 6.25266C13.6135 6.25266 14.3248 5.46494 14.3248 4.49323C14.3248 3.52152 13.6135 2.7338 12.736 2.7338C11.8585 2.7338 11.1472 3.52152 11.1472 4.49323C11.1472 5.46494 11.8585 6.25266 12.736 6.25266ZM12.736 16.8092C13.6135 16.8092 14.3248 16.0216 14.3248 15.0498C14.3248 14.0781 13.6135 13.2904 12.736 13.2904C11.8585 13.2904 11.1472 14.0781 11.1472 15.0498C11.1472 16.0216 11.8585 16.8092 12.736 16.8092Z" fill="#AAAAAA"/>
</svg>
