<svg width="60" height="60" viewBox="0 0 60 60" fill="none" xmlns="http://www.w3.org/2000/svg">
<circle cx="30" cy="30" r="30" fill="white"/>
<path d="M35.9189 31.82C35.6599 32.071 35.5409 32.434 35.5999 32.79L36.4889 37.71C36.5639 38.127 36.3879 38.549 36.0389 38.79C35.6969 39.04 35.2419 39.07 34.8689 38.87L30.4399 36.56C30.2859 36.478 30.1149 36.434 29.9399 36.429H29.6689C29.5749 36.443 29.4829 36.473 29.3989 36.519L24.9689 38.84C24.7499 38.95 24.5019 38.989 24.2589 38.95C23.6669 38.838 23.2719 38.274 23.3689 37.679L24.2589 32.759C24.3179 32.4 24.1989 32.035 23.9399 31.78L20.3289 28.28C20.0269 27.987 19.9219 27.547 20.0599 27.15C20.1939 26.754 20.5359 26.465 20.9489 26.4L25.9189 25.679C26.2969 25.64 26.6289 25.41 26.7989 25.07L28.9889 20.58C29.0409 20.48 29.1079 20.388 29.1889 20.31L29.2789 20.24C29.3259 20.188 29.3799 20.145 29.4399 20.11L29.5489 20.07L29.7189 20H30.1399C30.5159 20.039 30.8469 20.264 31.0199 20.6L33.2389 25.07C33.3989 25.397 33.7099 25.624 34.0689 25.679L39.0389 26.4C39.4589 26.46 39.8099 26.75 39.9489 27.15C40.0799 27.551 39.9669 27.991 39.6589 28.28L35.9189 31.82Z" fill="#241649"/>
</svg>
