<svg width="33" height="34" viewBox="0 0 33 34" fill="none" xmlns="http://www.w3.org/2000/svg">
<path fill-rule="evenodd" clip-rule="evenodd" d="M17.1111 21.0805H18.3333C18.6707 21.0805 18.9444 21.3543 18.9444 21.6916C18.9444 22.029 18.6707 22.3027 18.3333 22.3027H14.6667C14.3293 22.3027 14.0556 22.029 14.0556 21.6916C14.0556 21.3543 14.3293 21.0805 14.6667 21.0805H15.8889V12.525H12.2222V13.7472C12.2222 14.0845 11.9484 14.3583 11.6111 14.3583C11.2738 14.3583 11 14.0845 11 13.7472V11.9138C11 11.5765 11.2738 11.3027 11.6111 11.3027H21.3889C21.7262 11.3027 22 11.5765 22 11.9138V13.7472C22 14.0845 21.7262 14.3583 21.3889 14.3583C21.0516 14.3583 20.7778 14.0845 20.7778 13.7472V12.525H17.1111V21.0805Z" fill="white" stroke="white" stroke-width="0.5"/>
</svg>
