<svg width="27" height="27" viewBox="0 0 27 27" fill="none" xmlns="http://www.w3.org/2000/svg">
<path d="M26.944 13.3027C26.944 20.4824 21.1237 26.3027 13.944 26.3027C6.76427 26.3027 0.94397 20.4824 0.94397 13.3027C0.94397 6.12303 6.76427 0.302734 13.944 0.302734C21.1237 0.302734 26.944 6.12303 26.944 13.3027Z" fill="white"/>
<g clip-path="url(#clip0_600_5990)">
<path d="M13.944 1.58398C11.6262 1.58398 9.36053 2.27128 7.43339 3.55895C5.50625 4.84662 4.00423 6.67684 3.11726 8.81816C2.2303 10.9595 1.99823 13.3157 2.4504 15.589C2.90257 17.8622 4.01867 19.9502 5.65757 21.5891C7.29646 23.228 9.38455 24.3441 11.6578 24.7963C13.931 25.2485 16.2872 25.0164 18.4285 24.1294C20.5699 23.2425 22.4001 21.7405 23.6878 19.8133C24.9754 17.8862 25.6627 15.6205 25.6627 13.3027C25.6627 10.1947 24.4281 7.21402 22.2304 5.01633C20.0327 2.81863 17.052 1.58398 13.944 1.58398ZM13.944 21.8965C12.2443 21.8965 10.5828 21.3925 9.16954 20.4482C7.75631 19.5039 6.65483 18.1617 6.00439 16.5914C5.35394 15.0211 5.18376 13.2932 5.51535 11.6262C5.84694 9.95915 6.66542 8.42789 7.86728 7.22604C9.06913 6.02418 10.6004 5.2057 12.2674 4.87411C13.9344 4.54252 15.6624 4.7127 17.2327 5.36314C18.803 6.01359 20.1451 7.11507 21.0894 8.5283C22.0337 9.94154 22.5377 11.6031 22.5377 13.3027C22.5377 15.5819 21.6323 17.7678 20.0207 19.3794C18.409 20.9911 16.2232 21.8965 13.944 21.8965Z" fill="#241649"/>
<path d="M13.944 6.27148C12.5533 6.27148 11.1939 6.68386 10.0376 7.45646C8.88134 8.22907 7.98012 9.3272 7.44794 10.612C6.91577 11.8968 6.77652 13.3105 7.04783 14.6745C7.31913 16.0384 7.98879 17.2912 8.97213 18.2746C9.95547 19.2579 11.2083 19.9276 12.5722 20.1989C13.9362 20.4702 15.3499 20.3309 16.6347 19.7988C17.9195 19.2666 19.0176 18.3654 19.7902 17.2091C20.5628 16.0528 20.9752 14.6934 20.9752 13.3027C20.9752 11.4379 20.2344 9.64951 18.9158 8.33089C17.5972 7.01227 15.8088 6.27148 13.944 6.27148ZM17.8502 14.8652H13.1627C12.9555 14.8652 12.7568 14.7829 12.6103 14.6364C12.4638 14.4899 12.3815 14.2912 12.3815 14.084V10.959C12.3815 10.7518 12.4638 10.5531 12.6103 10.4066C12.7568 10.26 12.9555 10.1777 13.1627 10.1777C13.3699 10.1777 13.5686 10.26 13.7152 10.4066C13.8617 10.5531 13.944 10.7518 13.944 10.959V13.3027H17.8502C18.0574 13.3027 18.2561 13.385 18.4027 13.5316C18.5492 13.6781 18.6315 13.8768 18.6315 14.084C18.6315 14.2912 18.5492 14.4899 18.4027 14.6364C18.2561 14.7829 18.0574 14.8652 17.8502 14.8652Z" fill="#241649"/>
</g>
<defs>
<clipPath id="clip0_600_5990">
<rect width="25" height="25" fill="white" transform="translate(1.44397 0.802734)"/>
</clipPath>
</defs>
</svg>
