<svg width="28" height="30" viewBox="0 0 28 30" fill="none" xmlns="http://www.w3.org/2000/svg">
<path d="M6.27856 12.1532V6.14763C6.27856 5.20001 7.04682 4.43176 7.99443 4.43176C8.94205 4.43176 9.7103 5.20001 9.7103 6.14763V12.1532" stroke="#241649" stroke-width="2" stroke-miterlimit="10"/>
<path d="M9.7103 8.72144H6.27856" stroke="#241649" stroke-width="2" stroke-miterlimit="10"/>
<path d="M14.8579 14.727H4.56272L1.13098 16.4428V1H14.8579V14.727Z" stroke="#241649" stroke-width="2" stroke-miterlimit="10"/>
<path d="M20.8635 14.1968H20.0055C19.0579 14.1968 18.2897 14.965 18.2897 15.9126C18.2897 16.8603 19.0579 17.6285 20.0055 17.6285H20.8635" stroke="#241649" stroke-width="2" stroke-miterlimit="10"/>
<path d="M20.8634 17.6284H20.0054C18.584 17.6284 17.4316 18.7807 17.4316 20.2022C17.4316 21.6237 18.584 22.776 20.0054 22.776H22.5792" stroke="#241649" stroke-width="2" stroke-miterlimit="10"/>
<path d="M14.8579 10.765H26.8689V27.9237L23.4372 26.2078H12.2841V14.727" stroke="#241649" stroke-width="2" stroke-miterlimit="10"/>
</svg>
