<svg width="35" height="32" viewBox="0 0 35 32" fill="none" xmlns="http://www.w3.org/2000/svg">
<path d="M0.76709 27.713V10.9801C0.76709 9.13185 2.2654 7.63353 4.11367 7.63353H4.95032C6.00367 7.63353 6.99556 7.13759 7.62758 6.2949L11.3423 1.34196C11.5319 1.08916 11.8295 0.940369 12.1455 0.940369H22.8545C23.1706 0.940369 23.4681 1.08916 23.6577 1.34196L27.3724 6.2949C28.0044 7.13759 28.9963 7.63353 30.0497 7.63353H30.8863C32.7346 7.63353 34.2329 9.13185 34.2329 10.9801V27.713C34.2329 29.5613 32.7346 31.0596 30.8863 31.0596H4.11367C2.2654 31.0596 0.76709 29.5613 0.76709 27.713Z" stroke="white" stroke-width="1.5" stroke-linecap="round" stroke-linejoin="round"/>
<path d="M17.4998 24.3662C21.1963 24.3662 24.193 21.3696 24.193 17.6731C24.193 13.9766 21.1963 10.9799 17.4998 10.9799C13.8033 10.9799 10.8066 13.9766 10.8066 17.6731C10.8066 21.3696 13.8033 24.3662 17.4998 24.3662Z" stroke="white" stroke-width="1.5" stroke-linecap="round" stroke-linejoin="round"/>
</svg>
