<svg width="28" height="20" viewBox="0 0 28 20" fill="none" xmlns="http://www.w3.org/2000/svg">
<g opacity="0.2">
<path d="M16.5011 10.0001L12.1239 12.5013V7.49878L16.5011 10.0001Z" fill="black" stroke="black" stroke-width="1.5" stroke-linecap="round" stroke-linejoin="round"/>
<path d="M1.49353 10.8849V9.11509C1.49353 5.49404 1.49353 3.68354 2.62597 2.5186C3.75843 1.35367 5.54131 1.30324 9.10705 1.20239C10.7967 1.1546 12.5227 1.12036 13.9999 1.12036C15.4772 1.12036 17.2032 1.1546 18.8928 1.20239C22.4585 1.30324 24.2414 1.35367 25.3739 2.5186C26.5064 3.68354 26.5064 5.49404 26.5064 9.11509V10.8849C26.5064 14.5059 26.5064 16.3164 25.3739 17.4812C24.2414 18.6462 22.4587 18.6966 18.893 18.7976C17.2032 18.8453 15.4772 18.8796 13.9999 18.8796C12.5227 18.8796 10.7966 18.8453 9.10693 18.7976C5.54124 18.6966 3.7584 18.6462 2.62596 17.4812C1.49353 16.3164 1.49353 14.5059 1.49353 10.8849Z" stroke="#241649" stroke-width="1.5"/>
</g>
</svg>
